PathFileType	4	(X/Y/Z)	s08c0402.trc
DataRate	CameraRate	NumFrames	NumMarkers	Units	OrigDataRate	OrigDataStartFrame	OrigNumFrames
200	200	6	50	mm	200	500	2000
Frame#	Time	racr			lacr			c7			jug			rlel			rdr			llel			ldr			s2			lic			ric			lasi			rasi			rpsi			lpsi			rgt			lgt			rth1			rth2			rth3			rth4			rlfc			rmfc			rsh1			rsh2			rsh3			rsh4			rlmal			rmmal			rcal			rtoe			rmt5			lth1			lth2			lth4			lth3			llfc			lmfc			llmal			lmmal			lcal			lmt5			lsh1			lsh2			lsh3			lsh4			ltoe			SBIKE			LBIKE			RBIKE			
		X1	Y1	Z1	X2	Y2	Z2	X3	Y3	Z3	X4	Y4	Z4	X5	Y5	Z5	X6	Y6	Z6	X7	Y7	Z7	X8	Y8	Z8	X9	Y9	Z9	X10	Y10	Z10	X11	Y11	Z11	X12	Y12	Z12	X13	Y13	Z13	X14	Y14	Z14	X15	Y15	Z15	X16	Y16	Z16	X17	Y17	Z17	X18	Y18	Z18	X19	Y19	Z19	X20	Y20	Z20	X21	Y21	Z21	X22	Y22	Z22	X23	Y23	Z23	X24	Y24	Z24	X25	Y25	Z25	X26	Y26	Z26	X27	Y27	Z27	X28	Y28	Z28	X29	Y29	Z29	X30	Y30	Z30	X31	Y31	Z31	X32	Y32	Z32	X33	Y33	Z33	X34	Y34	Z34	X35	Y35	Z35	X36	Y36	Z36	X37	Y37	Z37	X38	Y38	Z38	X39	Y39	Z39	X40	Y40	Z40	X41	Y41	Z41	X42	Y42	Z42	X43	Y43	Z43	X44	Y44	Z44	X45	Y45	Z45	X46	Y46	Z46	X47	Y47	Z47	X48	Y48	Z48	X49	Y49	Z49	X50	Y50	Z50	
500	2.5000	783.912731	1305.257852	-22.356225	820.394066	1320.130646	-361.797836	791.031828	1387.862192	-180.618365	744.774618	1239.389769	-207.754227	623.706818	1104.486206	107.364162	777.888009	939.747868	-56.887577	642.520730	1137.582762	-501.862055	776.735105	927.012999	-436.443632	217.744171	1260.364070	-266.504860	392.013344	1206.629001	-399.912527	353.408354	1254.513088	-86.938539	386.964367	1152.113321	-354.122692	377.638347	1198.613128	-112.129412	254.041048	1300.219162	-219.735650	263.056109	1290.633552	-313.217669	277.729497	1170.945561	-51.494314	301.848263	1098.379888	-424.181705	376.134491	1025.187962	-30.912105	443.396104	967.656724	-27.261203	472.444698	885.810117	-33.365606	473.000341	988.530694	-31.972505	537.365036	781.732386	-45.467822	527.061267	776.535876	-159.247735	453.879511	675.497899	-25.393799	440.566787	588.594361	-45.257877	385.542613	522.976776	-57.616032	470.195928	581.147813	-73.225294	330.110844	419.557680	-73.573604	352.055863	438.916500	-160.618571	250.014533	389.756056	-122.364395	545.216812	383.234356	-98.901397	454.178626	348.603289	-38.800587	361.687418	981.191179	-420.905877	414.599925	911.716803	-409.845525	445.508795	925.556896	-395.971421	427.470771	823.824946	-409.003090	444.158738	694.499450	-390.310723	424.401869	675.723850	-281.836805	123.860525	423.677270	-402.003897	194.108709	436.200595	-316.989607	69.474151	457.278899	-360.076353	141.006138	254.755841	-418.562814	353.296358	604.885415	-415.585390	302.169181	537.788273	-399.321869	223.546669	497.986112	-405.653151	315.066222	525.260263	-362.581218	211.854649	204.701919	-348.913312	-144.866714	939.324851	-226.649861	10.681360	80.473337	-426.888788	10.686512	79.916610	-28.374554	
501	2.5050	784.241522	1303.541068	-22.379922	820.087491	1321.631228	-362.750649	791.100093	1387.109623	-180.606355	745.766639	1238.725352	-208.540451	622.533222	1103.541040	107.279200	777.644620	939.773790	-57.020611	642.199789	1137.485635	-500.108035	776.890397	926.681355	-435.604088	217.856667	1256.870877	-266.582834	392.734331	1205.309543	-399.475013	353.793395	1250.312120	-86.105269	387.971984	1150.358609	-353.930220	378.010967	1195.252069	-111.201949	254.028641	1296.363866	-219.105538	263.141583	1287.784584	-312.802077	277.154660	1166.045726	-51.524938	304.736656	1096.937585	-425.385946	375.093309	1019.669087	-30.963633	442.005275	961.905329	-27.135282	470.716222	879.782972	-33.307813	471.815346	982.385753	-31.558183	535.115170	775.587400	-45.164437	526.584329	773.383123	-164.432857	452.747768	668.617617	-24.953538	440.110248	581.359013	-45.638736	386.276384	515.233349	-57.168096	470.708899	574.675578	-72.126007	331.855428	410.921655	-73.190145	354.167762	430.318964	-160.506314	251.792424	381.515559	-121.928805	546.988840	373.835086	-98.917851	455.816399	339.442498	-38.815560	365.949527	980.601592	-421.491975	419.574604	911.807458	-409.550020	449.970351	925.973462	-394.827706	433.846488	824.116308	-409.517499	451.383239	695.080561	-390.642388	431.503568	675.773570	-282.682953	125.048501	431.968157	-402.470115	194.502867	443.526349	-317.013643	71.085966	466.579900	-360.516277	139.605587	262.833203	-418.597224	358.434872	607.602503	-416.361723	305.864190	541.921077	-400.222583	226.145641	503.932939	-406.026098	318.494826	528.591720	-363.183714	209.755259	211.917353	-348.870110	-144.821751	939.332212	-226.646146	10.695889	80.498202	-426.889469	10.771876	80.148166	-28.198356	
502	2.5100	784.626933	1302.163843	-22.495204	819.524218	1323.069658	-363.530335	791.063911	1386.684922	-180.670722	747.111367	1237.962441	-209.699914	621.511354	1102.566305	107.016390	777.546102	939.745115	-56.950731	641.802951	1137.089121	-498.473773	776.207078	927.532676	-437.653591	217.910029	1253.353062	-266.507046	393.451139	1204.085754	-399.003592	354.224536	1246.003680	-85.277109	389.002138	1148.663861	-353.584953	378.468784	1191.806244	-110.291975	254.015171	1292.387313	-218.342146	263.178664	1284.948625	-312.304352	276.595735	1160.793402	-51.587960	307.572301	1095.485093	-426.158561	374.272164	1013.975485	-31.113410	440.802851	955.738390	-27.142406	469.041014	873.462990	-33.411489	471.105538	975.800298	-31.777506	533.024105	769.275347	-44.906187	524.655740	766.548175	-164.219054	451.566521	661.481958	-24.682563	439.922874	574.061813	-45.028328	386.646752	507.526971	-56.735559	469.531406	567.586402	-71.045265	333.183682	402.338310	-72.765317	356.036211	422.206076	-159.369213	253.075027	373.231680	-121.501216	548.312440	364.302316	-98.923454	457.116134	330.173925	-38.776798	369.907713	979.920300	-421.993689	424.393718	911.979462	-409.524295	454.207303	926.454343	-393.960539	440.091767	824.453811	-410.175876	458.468020	695.940165	-391.387667	438.503042	676.276398	-283.312018	126.671890	440.248052	-402.921360	195.069900	450.868333	-317.044512	73.316339	475.841371	-361.104117	138.749620	270.973966	-418.711156	363.732549	610.524188	-417.206132	309.954910	545.920234	-401.215123	229.036845	510.000584	-406.474260	322.273346	532.030666	-364.004398	208.154504	219.444341	-348.995496	-144.742621	939.356545	-226.604493	10.735420	80.406199	-426.809080	10.794423	80.137995	-28.186015	
503	2.5150	785.051731	1301.193177	-22.578937	818.752648	1324.423470	-364.674866	790.976778	1386.494687	-180.850794	748.442319	1238.017164	-210.946116	620.509940	1101.834146	106.543336	777.454398	939.714379	-56.948062	641.188969	1136.326990	-497.003571	776.165356	926.967708	-437.212649	217.903863	1249.593475	-266.176348	394.133148	1202.925156	-398.423817	354.799971	1241.590606	-84.363413	389.979663	1147.096662	-353.378643	379.015106	1188.286578	-109.405853	253.951750	1288.425555	-217.401257	262.831060	1282.332493	-311.871265	276.353594	1155.522155	-51.501127	310.244216	1094.063347	-426.495219	373.626782	1008.190611	-31.247067	439.748309	949.424216	-27.295052	467.531743	867.130084	-33.638466	470.453084	969.262631	-32.265850	530.804704	762.707297	-44.955778	522.475810	759.492250	-164.227003	450.362662	654.132225	-24.645144	439.522145	566.662922	-44.756008	386.817859	499.555403	-56.417918	469.166194	560.256572	-70.919913	334.125282	393.894937	-72.207422	355.933337	413.954795	-159.381646	254.071035	365.066461	-120.966587	549.259698	354.614718	-99.102242	457.970340	320.785892	-38.801983	373.433213	979.158407	-422.480318	429.005176	912.139124	-409.643690	458.229640	926.919519	-393.370322	446.277655	824.955529	-410.931115	465.437368	697.083592	-392.331878	445.609621	676.759466	-284.245814	128.711505	448.465129	-403.492651	195.812428	458.215702	-317.083253	75.996426	485.261156	-362.005494	138.065993	279.181893	-418.772552	369.182161	613.681582	-418.007655	314.193459	550.345384	-402.210915	232.235960	516.183780	-407.064860	326.237515	535.621969	-364.948574	206.890241	226.700796	-349.211122	-144.695026	939.381336	-226.534605	10.734718	80.518619	-426.894869	10.725545	79.932964	-28.368678	
504	2.5200	785.531505	1300.589516	-22.743798	817.803705	1325.545230	-365.844015	790.833651	1386.544125	-181.138322	749.775703	1238.270093	-212.333577	619.629623	1101.075699	105.903381	777.380655	939.664917	-57.038032	640.185956	1135.500715	-496.189208	776.779041	924.986613	-433.052165	217.838732	1245.864234	-265.588189	394.717959	1201.835115	-397.844089	355.445173	1236.916267	-83.428330	390.923493	1145.522678	-352.979711	379.653211	1184.704117	-108.549973	253.834325	1284.252832	-216.438233	262.655636	1279.340099	-310.892530	276.254777	1150.151785	-51.377003	312.682737	1092.751419	-427.074131	373.160983	1002.336558	-31.458247	438.805675	943.015607	-27.636512	465.889003	860.432815	-34.163845	469.706512	962.617010	-32.702398	528.512571	755.898817	-45.275365	519.497615	749.094765	-159.498779	449.007801	646.666455	-24.777530	438.815008	559.133588	-44.753561	386.539089	491.596480	-56.292902	468.690825	553.066002	-71.146686	334.718569	385.315081	-71.837824	356.385150	405.566979	-158.981537	254.543955	356.959013	-120.594236	549.801708	344.785743	-99.192385	458.405736	311.457247	-38.867769	375.663809	977.250352	-420.521557	433.468674	912.377829	-409.975194	462.136707	927.553397	-393.161302	452.322387	825.522364	-411.737128	472.688748	698.479714	-393.631399	452.921380	677.395823	-285.363923	131.117996	456.761421	-403.971053	196.733086	465.557523	-317.130843	78.726632	494.576883	-362.184453	137.998146	287.520622	-418.846123	374.798535	617.146288	-418.952868	327.651703	562.506596	-414.057860	235.767533	522.459903	-407.621102	330.433627	539.423684	-366.046561	206.177129	234.072862	-349.235021	-144.652577	939.381649	-226.421273	10.753127	80.518574	-426.874528	10.752414	79.934735	-28.366234	
505	2.5250	786.112310	1300.404134	-23.089327	816.740020	1326.347829	-366.995268	790.615181	1386.804200	-181.581642	749.947916	1237.653986	-211.847948	618.994431	1100.446964	105.108523	777.264054	939.619078	-57.194405	639.072834	1134.292431	-495.467646	776.429178	924.099778	-432.070414	217.803171	1242.194997	-264.780602	395.208018	1200.789844	-397.204923	356.266137	1232.314078	-82.430114	391.816224	1144.074692	-352.715934	380.386468	1181.070029	-107.730702	253.810313	1280.208279	-215.288019	262.465580	1276.310000	-309.674748	276.263010	1144.692463	-51.324072	314.890256	1091.377287	-427.185204	372.884982	996.401721	-31.629336	437.999223	936.425070	-28.038795	464.277503	853.671315	-34.803785	469.060104	955.843466	-32.794526	526.050753	748.845488	-45.911189	515.901699	740.307541	-157.873087	447.523326	639.003959	-25.098312	437.959284	551.403707	-44.968398	386.157789	483.472620	-56.276173	467.821682	545.521748	-71.409592	334.934135	376.747229	-71.632821	357.121376	397.515715	-158.181067	254.670521	348.835009	-120.301713	549.852162	334.835927	-99.322269	458.327857	302.047737	-38.945315	378.972091	976.786092	-421.724121	437.837897	912.663084	-410.546327	466.052473	928.368646	-393.292288	458.230176	826.164745	-412.507253	479.824782	700.017892	-394.603124	460.317426	678.336633	-286.456178	133.866138	465.164446	-404.394913	197.834481	472.882950	-317.188290	81.946112	503.759957	-362.568856	138.504413	295.952299	-418.832966	380.400857	620.671479	-419.635707	323.151792	560.990383	-405.787590	239.585585	528.785417	-408.100911	334.843602	543.414478	-366.839182	205.961081	241.644784	-349.245138	-144.628831	939.381150	-226.441160	10.765609	80.445147	-426.832549	10.749452	79.896586	-28.363293	
